<svg xmlns="http://www.w3.org/2000/svg" width="153" height="44" fill="none"><g clip-path="url(#a)" fill="#fff"><path d="M80.5 14.572h4.152v21.16H80.5v-21.16ZM104.614 28.328c-.221 1.217-.735 2.229-1.543 3.035-1.056 1.053-2.474 1.58-4.254 1.58-1.919 0-3.453-.732-4.604-2.194-1.151-1.463-1.726-3.41-1.726-5.843 0-2.297.575-4.128 1.726-5.496 1.15-1.367 2.685-2.05 4.604-2.05 1.78 0 3.205.506 4.273 1.517.847.802 1.367 1.832 1.559 3.097h4.183c-.19-1.38-.63-2.625-1.323-3.733-.863-1.38-2.049-2.445-3.555-3.198-1.507-.751-3.22-1.128-5.137-1.128-2.084 0-3.92.451-5.509 1.354-1.589.902-2.829 2.194-3.72 3.875-.89 1.682-1.336 3.629-1.336 5.843 0 2.352.452 4.382 1.356 6.09.905 1.708 2.151 3.02 3.742 3.936 1.589.915 3.411 1.374 5.467 1.374 1.917 0 3.63-.37 5.137-1.107 1.506-.739 2.699-1.804 3.576-3.199.691-1.098 1.126-2.35 1.306-3.753h-4.222ZM76.37 17.401v-2.829h-5.877v-4.518H69.03L67 13.464a3.492 3.492 0 0 1-1.88 1.522l-2.395.813V17.4h3.617v12.876c0 1.558.233 2.747.699 3.568.465.82 1.198 1.373 2.199 1.66 1 .287 2.404.43 4.213.43.877 0 1.85-.04 2.918-.122v-3.445a36.7 36.7 0 0 1-2.754.123c-1.178 0-1.993-.177-2.446-.533-.452-.355-.678-1.08-.678-2.173V17.401h5.878ZM127.092 31.016c-1.014-1.722-1.522-3.704-1.522-5.946 0-2.214.508-4.162 1.522-5.843a10.57 10.57 0 0 1 4.11-3.916c1.726-.93 3.589-1.394 5.59-1.394s3.863.465 5.59 1.394a10.556 10.556 0 0 1 4.11 3.916c1.014 1.681 1.521 3.629 1.521 5.843 0 2.242-.507 4.224-1.521 5.946-1.013 1.722-2.377 3.048-4.089 3.977-1.713.93-3.584 1.395-5.611 1.395-2.027 0-3.898-.465-5.611-1.395-1.712-.93-3.075-2.255-4.089-3.977Zm16.729-5.946c0-2.405-.638-4.292-1.912-5.659-1.274-1.366-2.98-2.05-5.117-2.05-2.11 0-3.802.684-5.077 2.05-1.274 1.367-1.91 3.253-1.91 5.66 0 2.46.636 4.387 1.91 5.78 1.275 1.395 2.967 2.092 5.077 2.092 2.137 0 3.843-.697 5.117-2.091 1.274-1.394 1.912-3.322 1.912-5.782ZM82.575 12.45a2.4 2.4 0 0 0 2.403-2.396 2.4 2.4 0 0 0-2.403-2.398 2.4 2.4 0 0 0-2.403 2.397 2.4 2.4 0 0 0 2.403 2.398ZM150.71 16.156c-.06-.053-.156-.082-.289-.085v-.019a.5.5 0 0 0 .335-.14.435.435 0 0 0 .127-.321.405.405 0 0 0-.159-.339c-.106-.082-.252-.123-.438-.123h-.886v1.836h.342v-.687h.442c.079 0 .139.007.181.02a.17.17 0 0 1 .096.07.413.413 0 0 1 .049.154l.074.443h.347l-.1-.543c-.021-.124-.062-.213-.121-.266Zm-.505-.133h-.463v-.616h.463c.104 0 .186.027.248.081a.27.27 0 0 1 .094.216.303.303 0 0 1-.095.232.348.348 0 0 1-.247.087Z"/><path d="M150.164 13.909c-1.182 0-2.144.959-2.144 2.138a2.144 2.144 0 0 0 4.288 0c0-1.18-.962-2.138-2.144-2.138Zm0 3.91c-.98 0-1.777-.794-1.777-1.772a1.777 1.777 0 0 1 3.553 0c0 .978-.797 1.773-1.776 1.773ZM123.769 17.401v-2.829h-5.877v-4.518h-1.465l-2.028 3.411a3.494 3.494 0 0 1-1.88 1.522l-2.396.813V17.4h3.617v12.876c0 1.558.233 2.747.699 3.568.466.82 1.199 1.373 2.199 1.66 1 .287 2.405.43 4.213.43.877 0 1.85-.04 2.918-.122v-3.445a36.677 36.677 0 0 1-2.754.123c-1.178 0-1.993-.177-2.445-.533-.452-.355-.678-1.08-.678-2.173V17.401h5.877ZM40.487 0H3.617A3.614 3.614 0 0 0 0 3.61v36.783a3.612 3.612 0 0 0 3.616 3.608h36.871a3.614 3.614 0 0 0 3.62-3.608V3.61A3.617 3.617 0 0 0 40.486 0Zm-5.572 15.667h-9.188v20.167h-7.351v-5.91l.003-.002V22.84c0-.484.194-.948.537-1.29l4.784-4.777a.645.645 0 0 0 0-.915.645.645 0 0 0-.459-.19H9.188v-5.5h25.727v5.5Z"/></g><defs><clipPath id="a"><path fill="#fff" d="M0 0h152.308v44H0z"/></clipPath></defs></svg>
